<svg xmlns="http://www.w3.org/2000/svg" viewBox="0 0 320 80" role="img" aria-labelledby="title desc">
  <title id="title">Fenestra Health</title>
  <desc id="desc">A teal circular mark with swirling strokes next to the Fenestra Health wordmark.</desc>
  <g transform="translate(8 8)">
    <circle cx="28" cy="32" r="28" fill="none" stroke="#19c2e6" stroke-width="8" opacity="0.28" />
    <path d="M12 53c4.8 4.8 11.5 7.7 18.6 7.7C44.4 60.7 54 51 54 39c0-5.6-1.9-10.8-5.2-15" fill="none" stroke="#1db4da" stroke-width="8" stroke-linecap="round" />
    <path d="M44 11.2C39.4 7.5 33.6 5.3 27.6 5.3c-14 0-25.4 11.4-25.4 25.4 0 4.4 1.1 8.6 3.1 12.3" fill="none" stroke="#1fc8e7" stroke-width="8" stroke-linecap="round" />
    <path d="M55 32.4c0 15-12.2 27.2-27.2 27.2-8.5 0-16.1-3.9-21-10" fill="none" stroke="#18a0c3" stroke-width="8" stroke-linecap="round" opacity="0.7" />
  </g>
  <text x="88" y="44" fill="#0f172a" font-family="'Inter', 'Helvetica Neue', Arial, sans-serif" font-size="30" font-weight="700" letter-spacing="0.3">
    Fenestra
  </text>
  <text x="88" y="66" fill="#0f172a" font-family="'Inter', 'Helvetica Neue', Arial, sans-serif" font-size="22" font-weight="500" letter-spacing="0.3">
    Health
  </text>
</svg>
